<?xml version="1.0" standalone="no"?>
<!DOCTYPE svg PUBLIC "-//W3C//DTD SVG 20010904//EN"
 "http://www.w3.org/TR/2001/REC-SVG-20010904/DTD/svg10.dtd">
<svg version="1.0" xmlns="http://www.w3.org/2000/svg"
 width="512.000000pt" height="512.000000pt" viewBox="0 0 512.000000 512.000000"
 preserveAspectRatio="xMidYMid meet">

<g transform="translate(0.000000,512.000000) scale(0.100000,-0.100000)"
fill="#2f165a" stroke="none">
<path d="M2380 5114 c-19 -2 -78 -9 -130 -14 -330 -36 -695 -160 -990 -336
-375 -224 -680 -529 -904 -904 -175 -292 -291 -632 -338 -990 -16 -123 -16
-497 0 -620 82 -623 356 -1150 820 -1581 256 -239 575 -425 922 -539 274 -91
491 -124 800 -124 228 0 329 9 530 50 689 141 1304 583 1674 1204 175 292 291
632 338 990 16 123 16 497 0 620 -47 358 -163 698 -338 990 -224 375 -529 680
-904 904 -289 173 -634 291 -980 336 -88 12 -438 21 -500 14z m345 -308 c583
-27 1200 -349 1584 -826 360 -448 528 -971 499 -1552 -43 -870 -615 -1654
-1441 -1972 -295 -114 -601 -161 -940 -144 -1126 56 -2059 989 -2115 2116 -17
338 30 644 144 939 318 824 1097 1395 1969 1442 72 4 144 6 160 4 17 -1 80 -4
140 -7z"/>
<path d="M1440 3413 c-129 -21 -312 -126 -361 -206 -59 -97 15 -227 129 -227
49 0 70 9 128 56 65 53 129 77 209 78 107 0 138 -12 259 -99 39 -28 57 -35 96
-35 114 0 183 116 130 219 -21 42 -114 117 -193 158 -102 51 -277 76 -397 56z"/>
<path d="M3404 3401 c-89 -24 -151 -55 -232 -116 -96 -72 -124 -147 -84 -225
25 -50 75 -80 132 -80 39 0 57 7 96 35 121 87 152 99 259 99 80 -1 144 -25
209 -78 58 -47 79 -56 128 -56 114 0 188 130 129 227 -39 63 -158 142 -281
185 -83 30 -263 34 -356 9z"/>
<path d="M1140 2428 c-63 -33 -80 -72 -80 -179 0 -230 82 -506 218 -734 192
-322 542 -582 908 -674 179 -45 418 -58 589 -32 648 99 1155 594 1265 1235 11
65 20 157 20 205 0 107 -17 146 -80 179 l-44 22 -1376 0 -1376 0 -44 -22z
m2604 -320 c-49 -274 -170 -499 -367 -685 -459 -432 -1175 -432 -1634 0 -197
186 -318 411 -367 685 l-5 32 1189 0 1190 0 -6 -32z"/>
</g>
</svg>
