<?xml version="1.0" standalone="no"?>
<!DOCTYPE svg PUBLIC "-//W3C//DTD SVG 20010904//EN"
 "http://www.w3.org/TR/2001/REC-SVG-20010904/DTD/svg10.dtd">
<svg version="1.0" xmlns="http://www.w3.org/2000/svg"
 width="512.000000pt" height="512.000000pt" viewBox="0 0 512.000000 512.000000"
 preserveAspectRatio="xMidYMid meet">

<g transform="translate(0.000000,512.000000) scale(0.100000,-0.100000)"
fill="#2f165a" stroke="none">
<path d="M2370 5113 c-379 -36 -661 -116 -980 -278 -378 -193 -717 -497 -965
-865 -104 -156 -232 -419 -294 -605 -49 -150 -89 -321 -113 -490 -17 -118 -17
-512 0 -630 42 -295 120 -553 242 -800 137 -280 272 -468 494 -691 221 -220
412 -357 681 -489 188 -92 309 -137 500 -185 500 -126 1002 -102 1490 71 150
53 408 183 540 271 302 202 573 480 769 788 72 113 188 353 235 486 235 662
194 1372 -115 1993 -124 250 -263 447 -458 648 -214 222 -430 379 -711 518
-296 146 -572 225 -900 255 -102 9 -333 11 -415 3z m545 -342 c628 -106 1158
-448 1511 -977 179 -267 296 -573 351 -909 24 -153 24 -497 0 -650 -108 -668
-474 -1222 -1042 -1580 -243 -153 -537 -261 -850 -312 -154 -24 -497 -24 -650
1 -657 107 -1198 456 -1557 1006 -168 257 -281 557 -335 885 -24 153 -24 497
0 650 81 497 291 912 636 1255 382 381 862 605 1401 654 108 10 418 -4 535
-23z"/>
<path d="M1402 3492 c-94 -34 -178 -123 -203 -215 -19 -69 -7 -175 27 -236 59
-109 153 -165 279 -165 94 -1 157 23 218 82 132 127 139 314 16 447 -87 94
-220 128 -337 87z"/>
<path d="M3530 3501 c-90 -30 -174 -103 -212 -186 -30 -68 -30 -180 0 -247 29
-66 102 -141 165 -169 78 -35 192 -34 269 4 71 35 130 101 159 176 27 73 23
185 -10 249 -57 110 -153 173 -274 178 -40 2 -83 0 -97 -5z"/>
<path d="M1507 1786 c-72 -26 -107 -76 -107 -153 0 -57 26 -105 72 -133 32
-20 53 -20 1088 -20 1035 0 1056 0 1088 20 101 62 97 213 -8 274 -35 21 -46
21 -1065 23 -851 2 -1037 0 -1068 -11z"/>
</g>
</svg>
