<?xml version="1.0" standalone="no"?>
<!DOCTYPE svg PUBLIC "-//W3C//DTD SVG 20010904//EN"
 "http://www.w3.org/TR/2001/REC-SVG-20010904/DTD/svg10.dtd">
<svg version="1.0" xmlns="http://www.w3.org/2000/svg"
 width="512.000000pt" height="512.000000pt" viewBox="0 0 512.000000 512.000000"
 preserveAspectRatio="xMidYMid meet">

<g transform="translate(0.000000,512.000000) scale(0.100000,-0.100000)"
fill="#2f165a" stroke="none">
<path d="M2370 5113 c-379 -36 -661 -116 -980 -278 -378 -193 -717 -497 -965
-865 -104 -156 -232 -419 -294 -605 -49 -150 -89 -321 -113 -490 -17 -118 -17
-512 0 -630 42 -295 120 -553 242 -800 137 -280 272 -468 494 -691 221 -220
412 -357 681 -489 188 -92 309 -137 500 -185 500 -126 1002 -102 1490 71 150
53 408 183 540 271 560 374 952 942 1095 1588 33 150 50 291 57 465 15 426
-73 832 -263 1214 -124 250 -263 447 -458 648 -214 222 -430 379 -711 518
-296 146 -572 225 -900 255 -102 9 -333 11 -415 3z m545 -342 c628 -106 1158
-448 1511 -977 179 -267 296 -573 351 -909 24 -153 24 -497 0 -650 -108 -668
-474 -1222 -1042 -1580 -243 -153 -537 -261 -850 -312 -154 -24 -497 -24 -650
1 -657 107 -1198 456 -1557 1006 -168 257 -281 557 -335 885 -24 153 -24 497
0 650 81 497 291 912 636 1255 382 381 862 605 1401 654 108 10 418 -4 535
-23z"/>
<path d="M1601 3649 c-116 -19 -227 -106 -279 -217 -23 -49 -27 -70 -26 -152
0 -80 4 -103 26 -150 37 -81 98 -144 176 -182 89 -44 206 -51 293 -19 115 43
193 125 229 240 25 80 25 142 0 225 -54 175 -235 285 -419 255z"/>
<path d="M3392 3649 c-139 -24 -255 -128 -296 -268 -54 -185 47 -382 231 -451
89 -33 206 -26 295 18 78 38 139 101 176 182 22 47 26 70 26 150 1 82 -3 103
-26 152 -49 105 -161 196 -263 213 -77 12 -90 13 -143 4z"/>
<path d="M1340 1869 c-60 -24 -100 -85 -100 -152 0 -51 43 -124 147 -249 355
-426 948 -627 1499 -507 387 84 746 328 953 648 32 50 41 74 41 108 0 140
-165 215 -262 120 -18 -18 -53 -61 -78 -96 -68 -97 -189 -213 -300 -286 -462
-308 -1053 -272 -1483 91 -58 49 -165 171 -223 255 -47 69 -124 96 -194 68z"/>
</g>
</svg>
